<svg xmlns="http://www.w3.org/2000/svg" xmlns:xlink="http://www.w3.org/1999/xlink" width="145.848" height="198.09" viewBox="0 0 145.848 198.09">
  <defs>
    <linearGradient id="linear-gradient" x1="0.286" y1="0.176" x2="0.713" y2="0.862" gradientUnits="objectBoundingBox">
      <stop offset="0" stop-color="#76eb8f"/>
      <stop offset="1" stop-color="#a88afb"/>
    </linearGradient>
  </defs>
  <g id="Group_348" data-name="Group 348" transform="translate(-47.699 -116.192)">
    <path id="Path_108" data-name="Path 108" d="M517.182,140.889c-3.5-1.748-7.357,1.937-9.5,6.328.4,2.239,2.974,15.936,3.6,18.6,7.5-10.13,10.547-22.6,5.892-24.924" transform="translate(-379.199 -1.679)" fill="#fff"/>
    <path id="Path_109" data-name="Path 109" d="M517.182,140.889c-3.5-1.748-7.357,1.937-9.5,6.328.4,2.239,2.974,15.936,3.6,18.6C518.795,155.682,521.837,143.213,517.182,140.889Z" transform="translate(-379.199 -1.679)" fill="none" stroke="#000" stroke-linecap="round" stroke-width="1.2"/>
    <path id="Path_110" data-name="Path 110" d="M76.794,429.245s.526-43.455,1.39-59.156c.955-17.362-59.443-74.556-60.414-78.7s-4-16.191-10.306-14.471c-4.727,1.289-2.573,9.275-2.542,13.245s-4.867,19.92-1.837,41.863,12.8,36.954,14.053,46.192c1.711,12.592,2.709,51.8,2.709,51.8" transform="translate(46.127 -116.348)" fill="#fff"/>
    <path id="Path_111" data-name="Path 111" d="M76.794,429.245s.526-43.455,1.39-59.156c.955-17.362-59.443-74.556-60.414-78.7s-4-16.191-10.306-14.471c-4.727,1.289-2.573,9.275-2.542,13.245s-4.867,19.92-1.837,41.863,12.8,36.954,14.053,46.192c1.711,12.592,2.709,51.8,2.709,51.8" transform="translate(46.127 -116.348)" fill="none" stroke="#000" stroke-linecap="round" stroke-width="1.2"/>
    <path id="Path_112" data-name="Path 112" d="M101.571,397.082c-.136-.657-.275-1.3-.414-1.94a49.825,49.825,0,0,1-1.184-18.454,45.815,45.815,0,0,0-.648-12.838" transform="translate(-35.667 -189.617)" fill="#fff"/>
    <path id="Path_113" data-name="Path 113" d="M101.571,397.082c-.136-.657-.275-1.3-.414-1.94a49.825,49.825,0,0,1-1.184-18.454,45.815,45.815,0,0,0-.648-12.838" transform="translate(-35.667 -189.617)" fill="none" stroke="#000" stroke-linecap="round" stroke-width="1"/>
    <path id="Path_114" data-name="Path 114" d="M122.154,7.733a7.353,7.353,0,0,0-8.03-5.54L58.487,12.178a6.32,6.32,0,0,0-5.1,7.337l22.5,125.37a6.32,6.32,0,0,0,7.337,5.1L138.857,140a6.321,6.321,0,0,0,5.1-7.337Z" transform="translate(3.066 114.709)"/>
    <path id="Path_115" data-name="Path 115" d="M121.461,7.3a6.32,6.32,0,0,0-7.337-5.1L58.487,12.176a6.32,6.32,0,0,0-5.1,7.337l22.5,125.37a6.32,6.32,0,0,0,7.337,5.1L138.857,140a6.321,6.321,0,0,0,5.1-7.337Z" transform="translate(3.066 114.711)" fill="none" stroke="#fff" stroke-linecap="round" stroke-width="1.2"/>
    <path id="Path_116" data-name="Path 116" d="M232.663,73.352l-15.781,2.817a1.349,1.349,0,0,1-.474-2.656L232.189,70.7a1.349,1.349,0,0,1,.474,2.656Z" transform="translate(-133.228 57.015)" fill="none" stroke="#fff" stroke-linecap="round" stroke-linejoin="round" stroke-width="1"/>
    <rect id="Rectangle_99" data-name="Rectangle 99" width="35.22" height="12.486" transform="translate(93.411 231.3) rotate(-10.601)" stroke="rgba(0,0,0,0)" stroke-width="1" fill="url(#linear-gradient)"/>
    <rect id="Rectangle_104" data-name="Rectangle 104" width="52.912" height="14.486" transform="translate(75.439 190.073) rotate(-10.601)" fill="none" stroke="#fff" stroke-width="0.7"/>
    <line id="Line_23" data-name="Line 23" x1="55.616" y2="9.927" transform="translate(70.181 162.913)" fill="none" stroke="#fff" stroke-linecap="round" stroke-linejoin="round" stroke-width="1.5"/>
    <line id="Line_24" data-name="Line 24" x1="55.616" y2="9.927" transform="translate(68.864 155.535)" fill="none" stroke="#fff" stroke-linecap="round" stroke-linejoin="round" stroke-width="1.5"/>
    <path id="Path_121" data-name="Path 121" d="M575.558,536.232c.631,2.66,1.793,3.674,2.155,5.69-11.2,22.816,3,20.345,5.266,14.079,2.551-7.048.665-14.976-7.421-19.769" transform="translate(-434.53 -334.634)" fill="#fff"/>
    <path id="Path_122" data-name="Path 122" d="M575.558,536.232c.631,2.66,1.793,3.674,2.155,5.69-11.2,22.816,3,20.345,5.266,14.079C585.529,548.953,583.644,541.024,575.558,536.232Z" transform="translate(-434.53 -334.634)" fill="none" stroke="#000" stroke-linecap="round" stroke-width="1.2"/>
    <path id="Path_123" data-name="Path 123" d="M541.5,437.225c.381,2.346,1.523,8.245,1.885,10.26C531.736,470.61,546.618,467,549.71,461.1c3.788-7.229,9.827-16.942-8.214-23.875" transform="translate(-405.539 -251.345)" fill="#fff"/>
    <path id="Path_124" data-name="Path 124" d="M541.5,437.225c.381,2.346,1.523,8.245,1.885,10.26C531.736,470.61,546.618,467,549.71,461.1,553.5,453.871,559.537,444.158,541.5,437.225Z" transform="translate(-405.539 -251.345)" fill="none" stroke="#000" stroke-linecap="round" stroke-width="1.2"/>
    <path id="Path_125" data-name="Path 125" d="M518.789,324.408c.484,2.7,1.009,5.508,1.371,7.523-11.645,23.125,3.363,19.425,6.455,13.522,3.788-7.229,7.953-15.555-7.826-21.045" transform="translate(-386.023 -156.438)" fill="#fff"/>
    <path id="Path_126" data-name="Path 126" d="M518.789,324.408c.484,2.7,1.009,5.508,1.371,7.523-11.645,23.125,3.363,19.425,6.455,13.522C530.4,338.224,534.567,329.9,518.789,324.408Z" transform="translate(-386.023 -156.438)" fill="none" stroke="#000" stroke-linecap="round" stroke-width="1.2"/>
    <rect id="Rectangle_100" data-name="Rectangle 100" width="145.657" height="197.531" rx="9" transform="translate(47.89 116.469)" fill="none"/>
    <text id="_91-98000XXXXX" data-name="+91-98000XXXXX" transform="translate(80.579 198.671) rotate(-11.5)" fill="#fff" font-size="5" font-family="SFProDisplay-Medium, SF Pro Display" font-weight="500" letter-spacing="0.03em"><tspan x="0" y="0">+91-98000XXXXX</tspan></text>
  </g>
</svg>
