<svg xmlns="http://www.w3.org/2000/svg" width="23.188" height="22.489" viewBox="0 0 23.188 22.489">
  <g id="Orders_off" transform="translate(3.012 -1.083)">
    <path id="Path_17734" d="M89.654,19.3,81.2,23.166l2.566,3,8.68-3.857Zm6.28,0-2.793,3,8.68,3.857,2.566-3Zm-3.14,3.91-7.5,3.336,7.5,3.329,7.5-3.329Zm-9.02,3.714-2.574,3,8.454,3.865,2.793-3.012c-2.885-1.3-5.791-2.55-8.673-3.857Zm18.04,0q-4.333,1.937-8.673,3.857l2.793,3.012,8.454-3.865ZM84.1,32.314v5.823l8.212,3.653V32.352l-1.947,2.1-.475.506-.634-.287Zm17.391,0-5.155,2.355-.634.287-.475-.506-1.947-2.1v9.431l8.212-3.646Z" transform="translate(-84.212 -18.218)" fill="#d4d4d4"/>
  </g>
</svg>
