<svg xmlns="http://www.w3.org/2000/svg" xmlns:xlink="http://www.w3.org/1999/xlink" width="375" height="347" viewBox="0 0 375 347">
  <defs>
    <clipPath id="clip-path">
      <path id="bg" d="M375,0V347H0V0Z" transform="translate(0 -1.145)" fill="#6e45c0"/>
    </clipPath>
  </defs>
  <g id="top_bg" transform="translate(0 1.145)">
    <path id="bg-2" d="M375,0V347H0V0Z" transform="translate(0 -1.145)" fill="#6e45c0"/>
    <g id="Mask_Group_48" clip-path="url(#clip-path)">
      <path id="Path_12334" d="M111.7-.367l43.883-.144a110.744,110.744,0,0,1,111.336,111.18l-.347,105.571c-.2,61.606-50.378,111.711-112.07,111.914l-43.883.144A110.744,110.744,0,0,1-.714,217.118l.347-105.571C-.164,49.941,50.011-.164,111.7-.367Z" transform="translate(8.7 -236.961) rotate(39)" fill="#8a64d6" opacity="0.229"/>
      <path id="Path_12335" d="M111.7-.367l43.883-.144a110.744,110.744,0,0,1,111.336,111.18l-.347,105.571c-.2,61.606-50.378,111.711-112.07,111.914l-43.883.144A110.744,110.744,0,0,1-.714,217.118l.347-105.571C-.164,49.941,50.011-.164,111.7-.367Z" transform="translate(-33.3 -314.438) rotate(39)" fill="#a181e2" opacity="0.385"/>
      <g id="Group_22311" transform="translate(110.04 154.894)">
        <path id="Path_12326" d="M11163.132-1251.537l117.447-164.145s39.576-73.923,139.819-47.785c54.657,10.667,56.428,13.027,56.428,13.027l2.252,210.628Z" transform="translate(-11177.04 1469.062)" fill="#734cc5"/>
        <path id="Path_12327" d="M11177.04-1272.861l103.539-142.821s39.576-73.923,139.819-47.785c54.657,10.667,56.428,13.027,56.428,13.027l2.252,210.628Z" transform="translate(-11133.04 1524.951)" fill="#855fd0"/>
        <path id="Path_12328" d="M11177.04-1272.861l103.539-142.821s39.576-73.923,139.819-47.785c54.657,10.667,56.428,13.027,56.428,13.027l2.252,210.628Z" transform="translate(-11093.04 1590.509)" fill="#7e56ce"/>
      </g>
    </g>
  </g>
</svg>
